<?xml version="1.0" encoding="UTF-8"?>
<svg width="60" height="100" viewBox="0 0 60 100" fill="none" xmlns="http://www.w3.org/2000/svg">
  <!-- Car body -->
  <path d="M10 20 L20 0 L40 0 L50 20 L50 90 L10 90 Z" fill="#3b82f6"/>
  
  <!-- Windows -->
  <path d="M15 25 L22 10 L38 10 L45 25 L45 45 L15 45 Z" fill="#1e1e1e"/>
  
  <!-- Headlights -->
  <rect x="15" y="5" width="8" height="5" fill="#ffd700"/>
  <rect x="37" y="5" width="8" height="5" fill="#ffd700"/>
  
  <!-- Taillights -->
  <rect x="15" y="85" width="8" height="5" fill="#dc2626"/>
  <rect x="37" y="85" width="8" height="5" fill="#dc2626"/>
  
  <!-- Wheels -->
  <rect x="5" y="30" width="10" height="20" rx="2" fill="#1e1e1e"/>
  <rect x="45" y="30" width="10" height="20" rx="2" fill="#1e1e1e"/>
  <rect x="5" y="60" width="10" height="20" rx="2" fill="#1e1e1e"/>
  <rect x="45" y="60" width="10" height="20" rx="2" fill="#1e1e1e"/>
</svg> 